<?xml version="1.0" standalone="no"?>
<svg style="width: 390px; height: 390px; justify-content: center; align-self: center; transform: scale(1);" viewBox="-350 -150 1500 1500" xmlns="http://www.w3.org/2000/svg"><rect x="-350" y="-150" width="100%" height="100%" fill="#e6d6ff" rx="30"></rect><g transform="rotate(0 441.68455505371094 604.0788383483887)"><g transform="translate(0 459)"><path d="M298.817 752.115C238.632 750.82 183.845 754.456 125.89 742.701L125.816 740.749C113.385 740.391 117.5 728.774 119.999 720.649C-113.895 710.243 38.6643 140.153 200.749 101.822C208.689 100.468 217.315 99.7529 226.061 99.6669C237.345 96.2209 248.465 95.6099 260.261 92.4669C261.393 88.3369 261.578 85.9489 266.582 87.1719C284.543 70.0199 316.861 54.2209 327.766 87.6909C342.117 67.7439 350.347 44.4219 356.343 20.8029L357.313 20.9619C359.861 14.6819 364.033 6.73594 369.108 5.42494C377.018 2.80594 391.934 3.40994 400.534 2.34694C419.18 1.05394 440.839 -2.11506 458.712 2.16194C503.375 13.0959 484.019 65.8199 520.231 100.144C536.849 93.2649 562.896 95.1509 578.817 103.342C589.07 111.553 583.929 120.81 582.131 129.49C696.488 119.182 726.915 251.818 750.514 339.255C759.982 368.343 769.379 388.063 785.505 410.521C806.453 436.774 818.216 471.154 796.754 498.85C827.394 559.989 794.131 617.453 758.937 663.607C752.045 670.998 740.866 691.563 730.765 692.969C728.024 695.474 723.646 698.557 720.557 700.796L724.282 705.68C724.727 710.19 724.756 715.037 727.84 719.059C730.807 721.95 733.979 724.914 734.067 729.23C729.339 734.717 723.233 728.588 718.746 725.863C717.026 729.243 717.273 737.272 711.762 736.96C575.11 746.332 435.159 752.476 298.817 752.115" transform="translate(37.00013 -20.00004)" fill="#FFFFFF" stroke="none"></path><path d="M344.686 72.415C352.834 57.409 370.539 14.148 359.673 0C355.527 4.846 354.941 11.741 353.292 17.776C349.154 32.973 343.236 47.748 334.725 61.047C320.809 35.89 287.084 50.979 270.798 66.467C266.707 65.918 262.843 69.155 261.79 73.015C215.964 83.385 190.59 75.149 152.874 111.071C34.4031 203.656 -104.571 682.971 118.451 711.904C110.892 739.253 148.621 735.973 135.801 711.489C217.755 701.093 286.5 648.378 360.429 616.717C375.02 613.163 387.794 619.937 400.285 626.561C402.838 627.914 405.378 629.261 407.92 630.513L408.887 630.984C421.869 635.717 434.037 642.41 446.874 647.565C514.048 673.415 652.906 725.563 719.758 696.729C715.723 709.382 728.54 728.291 740.596 721.83C744.646 720.757 747.612 716.139 746.205 712.105L746.133 711.878C745.966 711.374 745.904 711.34 745.946 711.774L745.984 712.091C746.05 713.093 746.025 713.143 745.911 712.24L745.645 709.933C745.083 707.266 742.267 704.284 740.217 702.273L738.997 701.091C735.872 697.686 738.036 691.506 735.368 687.62C736.841 686.552 738.278 685.427 739.658 684.241C753.095 679.904 760.828 662.906 770.072 652.766L770.403 652.3C796.555 615.516 825.395 574.95 820.903 527.59C819.44 513.015 815.507 498.665 809.863 485.131C834.377 448.505 812.977 416.453 792.408 385.643C788.879 380.357 785.374 375.107 782.129 369.877C735.956 276.376 734.806 108.802 596.318 108.477C605.25 73.094 550.708 72.56 528.274 78.514C512.431 61.7136 507.155 38.9278 502.841 16.9634L502.258 13.974C489.535 30.58 506.612 77.823 522.067 92.607C462.561 105.816 400.394 95.675 344.686 72.415ZM332.549 64.35C319.416 56.291 301.235 59.724 290.599 70.219C285.886 74.422 281.795 80.104 276.428 83.406C275.759 83.817 275.073 84.097 274.384 84.273C278.081 91.263 283.731 97.964 288.507 103.729C314.117 126.091 342.947 144.871 374.633 157.227C375.93 138.217 382.508 119.755 390.026 102.289C383.018 100.177 376.109 97.746 369.324 94.995C368.46 99.566 364.175 103.096 361.465 106.644C355.316 113.845 351.218 122.65 345.363 129.976C338.841 136.811 327.76 128.094 332.447 120.011C340 108.983 349.761 99 361.101 91.491C353.626 88.137 346.498 84.19 339.604 79.774C339.312 80.078 339.011 80.368 338.706 80.648C338.245 77.802 334.328 78.551 332.245 79.017C331.177 78.1123 329.834 78.6788 328.549 79.221C328.049 79.4321 327.557 79.6395 327.094 79.755C326.852 79.315 326.649 78.85 326.505 78.362C318.016 86.747 311.631 100.026 300.678 105.033C296.166 106.278 290.934 101.798 292.654 97.01C295.551 89.658 319.055 74.055 326.819 69.932C325.12 67.46 326.479 66.239 329.233 66.606C329.706 66.014 330.431 65.831 331.186 66.333C331.665 65.689 332.114 65.023 332.549 64.35ZM191.063 98.882C212.944 85.222 239.561 88.064 263.418 81.469L265.222 84.6352C325.395 187.11 534.046 240.603 595.237 111.925C738.642 130.092 707.06 317.197 779.464 406.304C788.769 418.518 799.301 432.812 799.027 448.88C797.402 465.963 788.008 481.192 782.677 497.332C780.212 503.012 786.634 509.048 791.658 504.261C795.278 500.811 799.019 497.478 802.505 493.911C802.655 496.486 802.822 499.059 802.989 501.633C803.734 513.094 804.478 524.552 803.671 536.059C799.335 579.473 769.763 614.913 743.89 648.38L741.501 651.48C727.019 670.149 716.047 680.6 691.652 684.764C624.901 688.653 558.682 667.699 494.626 647.429C482.536 643.603 470.522 639.801 458.597 636.196C443.421 630.892 428.334 625.341 413.143 620.083C402.472 614.352 391.871 607.452 380.084 604.349C441.332 570.599 506.372 545.319 572.856 524.036C604.058 541.53 643.809 551.844 677.976 537.494C682.067 535.69 684.997 528.82 683.221 524.602C674.06 502.83 674.372 479.007 674.679 455.503C674.79 447.017 674.9 438.573 674.564 430.282C671.654 393.087 662.88 356.553 657.886 319.592C654.095 298.4 652.812 276.587 646.067 256.152C646.023 255.68 645.308 255.661 645.317 256.152C645.361 258.497 644.775 260.647 644.186 262.81C643.736 264.461 643.283 266.12 643.107 267.88C640.836 303.094 644.4 338.017 647.964 372.93C651.484 407.417 655.001 441.883 652.895 476.607C639.201 467.601 625.635 459.717 610.02 455.094C604.048 437.529 565.309 433.873 551.266 442.805C539.192 443.634 527.819 444.721 515.924 446.102C492.096 420.444 347.972 416.168 313.645 428.374C310.905 428.05 307.777 427.587 304.395 427.087C280.017 423.481 242.383 417.914 240.819 448.034C223.334 448.785 205.932 453.241 189.874 462.022C195.567 446.746 194.282 430.693 197.252 414.984C197.369 411.448 198.07 406.352 198.857 400.631C200.947 385.441 203.643 365.852 197.601 359.417C186.766 369.944 185.919 397.961 182.035 412.925C181.407 418.875 180.119 424.734 178.833 430.587C176.67 440.423 174.512 450.242 175.493 460.454C174.468 464.786 173.1 469.02 172.348 473.4C158.091 483.723 145.002 496.868 134.349 510.833C123.746 525.956 117.901 544.126 117.747 562.589C119.902 580.171 147.92 558.285 159.679 549.099C161.024 548.048 162.157 547.163 163.014 546.523L163.491 546.171C162.154 550.031 160.407 553.835 158.655 557.65C154.495 566.711 150.306 575.832 151.51 585.911C159.108 613.218 183.857 591.295 195.138 578.644L195.811 577.882C200.018 606.338 234.221 600.765 248.048 582.257C263.353 564.883 288.898 538.801 294.01 516.407C381.798 492.533 469.628 462.874 561.239 459.059C567.338 475.22 572.116 492.258 570.011 509.545C420.681 528.171 303.336 637.519 162.917 683.005C106.967 702.43 57.8101 678.452 37.8401 622.531C-1.69887 499.609 35.9091 365.114 82.8971 249.429L83.5965 247.701C106.753 190.659 137.536 132.576 191.063 98.882ZM555.011 88.652C556.532 90.445 557.048 93.061 556.493 95.411C563.153 105.58 566.812 117.092 570.159 128.528L571.096 127.365C586.27 108.402 594.875 91.2078 561.526 89.335C559.358 89.028 557.184 88.8 555.011 88.652ZM251.878 118.507C268.955 106.208 209.679 95.2156 237.227 115.336C241.585 118.292 246.623 120.415 251.878 118.507ZM508.995 110.95C519.857 109.42 530.637 107.281 541.232 104.43C547.556 113.694 556.662 120.743 565.686 127.349L569.061 129.809C554.212 147.185 536.314 162.592 513.674 168.139C513.606 150.065 508.916 132.62 506.536 114.889C508.055 114.252 509.038 112.658 508.995 110.95ZM407.112 106.771C407.016 108.255 406.595 109.723 405.9 110.963C396.744 126.824 388.706 143.374 379.028 158.899C399.914 166.636 421.862 171.681 444.007 173.675C441.889 160.891 442.301 147.946 442.714 135C442.953 127.493 443.191 119.986 442.937 112.51C430.892 111.354 418.92 109.43 407.112 106.771ZM460.743 113.651C471.372 113.995 482.018 113.725 492.62 112.825C497.631 131.848 500.811 151.279 508.139 169.639C488.412 174.647 467.87 175.485 447.63 173.991C448.612 170.775 449.639 167.573 450.364 164.276C453.126 150.175 454.121 135.75 456.309 121.553C460.961 122.261 462.381 117.158 460.743 113.651ZM167.17 137.839C165.5 138.028 163.85 138.215 162.284 138.208C161.228 138.203 160.792 139.474 161.456 140.209C168.282 149.898 185.699 147.133 178.671 139.089C175.298 136.919 171.175 137.386 167.17 137.839ZM228.406 203.034C237.31 197.014 231.971 182.454 220.929 185.298C211.083 188.292 184.861 205.474 179.613 214.007C182.118 218.804 223.953 206.852 228.406 203.034ZM650.432 185.746C656.498 184.98 659.698 184.576 660.27 185.617C660.91 186.779 658.268 189.745 652.675 196.024C650.661 198.286 648.264 200.977 645.5 204.169C632.753 215.357 619.836 192.437 635.701 187.337C641.762 186.841 646.653 186.223 650.432 185.746ZM323.85 215.757C313.201 212.892 334.974 258.382 340.96 259.076C348.367 264.149 357.623 255.786 355.549 247.861C350.284 234.568 337.274 224.611 325.475 216.822L323.85 215.757ZM474.885 240.363C475.747 239.972 476.508 241.198 475.642 241.659C471.944 243.622 467.928 247.778 465.604 251.285C457.646 261.238 448.232 243.65 460.463 242.328C464.925 242.649 470.791 242.218 474.885 240.363ZM540.289 267.722C532.215 261.354 532.135 293.963 545.693 295.907C550.21 297.283 556.045 292.438 554.025 287.575C550.029 280.484 543.041 275.719 540.289 267.722ZM134.052 288.69C135.989 288.987 140.659 287.126 145.795 285.079C155.931 281.039 167.885 276.275 164.247 285.94C160.68 290.022 156.164 290.12 151.102 290.497L150.964 290.484C150.362 290.445 148.885 290.536 147.028 290.649C140.875 291.027 130.554 291.66 134.052 288.69ZM420.579 307.624C424.585 300.355 433.792 292.643 442.627 293.274C448.046 293.094 450.163 300.887 445.389 303.474L445.23 303.541C442.233 304.737 419.503 310.57 420.579 307.624ZM270.575 318.136C270.143 312.028 276.956 309.844 281.549 311.839C289.745 315.4 296.097 328.499 293.503 336.971C291.415 345.375 278.695 347.235 274.653 339.435C272.329 332.233 272.016 325.357 270.575 318.136ZM702.517 326.482C699.225 327.675 695.959 328.857 692.747 329.537C687.45 334.525 722.29 335.803 723.561 330.062C725.81 327.573 724.715 324.145 721.701 323.012C715.331 321.842 708.874 324.18 702.517 326.482ZM168.188 355.298C171.489 347.147 159.431 347.364 154.663 349.779C153.786 350.523 151.291 350.729 148.755 350.938C144.672 351.275 140.481 351.621 142.753 354.236C149.958 359.699 161.756 363.827 168.188 355.298ZM591.543 364.445L591.284 364.47C582.891 366.292 581.408 378.868 588.798 383.077C598.523 387.857 605.294 377.261 610.572 369.002C611.537 367.492 612.452 366.06 613.326 364.815L613.67 364.331C613.708 360.73 601.923 362.73 595.211 363.869C593.636 364.136 592.341 364.356 591.543 364.445ZM466.071 363.814C468.693 358.981 473.682 366.831 476.704 371.587C477.507 372.851 478.172 373.896 478.616 374.427C481.626 381.167 472.942 386.423 468.659 380.247C466 375.43 464.817 369.222 466.071 363.814ZM352.757 384.707C351.566 382.435 353.898 383.155 356.201 383.867C357.564 384.288 358.916 384.705 359.523 384.499C362.556 384.685 365.295 385.308 367.011 388.036C369.76 392.411 364.419 397.101 360.212 394.835C356.152 392.592 357.128 386.741 352.757 384.707ZM56.2436 440.909L56.3329 440.672C59.2739 432.413 77.0229 420.163 85.8399 423.371C86.2519 423.352 86.6599 423.754 86.6359 424.168L86.7799 425.192C87.2762 428.823 87.5323 432.377 85.1359 435.616C80.8449 442.531 76.7479 451.148 68.4949 453.845C60.3621 456.423 53.3955 448.71 56.2436 440.909ZM498.149 448.565C443.885 429.109 384.743 429.679 327.819 431.491L329.316 431.942C353.857 439.387 382.591 450.955 395.382 473.845C428.913 462.909 463.223 453.854 498.149 448.565ZM750.397 464.251C731.402 475.399 717.653 423.201 741.593 434.413L743.3 436.242C750.235 443.727 760.957 456.38 750.397 464.251ZM282.042 437.322L284.753 437.465C281.543 441.674 278.942 446.472 277.357 451.245C266.765 448.992 256.085 447.841 245.585 447.913C251.603 435.622 269.227 436.606 281.659 437.3L282.042 437.322ZM285.706 453.177C291.85 448.304 298.914 444.733 304.981 439.809C317.516 441.837 330.045 445.068 341.734 449.909C331.988 452.855 322.783 457.033 315.129 463.596C305.735 459.13 295.807 455.735 285.706 453.177ZM563.288 443.641C579.192 442.53 595.447 449.141 603.796 463.926C593.254 462.63 582.739 463.512 573.971 469.629C571.542 464.953 568.792 460.426 565.863 456.085C568.172 453.694 568.216 448.911 565.604 446.735C564.141 445.516 562.513 444.658 560.782 444.051L563.288 443.641ZM324.821 468.619C334.272 463.426 354.901 467.66 358.036 458.018C367.097 463.414 375.397 470.06 382.62 478.13C370.431 482.331 358.31 486.773 346.287 491.467C344.598 481.91 334.738 474.393 325.657 469.101L324.821 468.619ZM187.759 471.724C234.327 448.386 296.643 458.148 331.19 497.487C317.482 501.33 302.486 502.283 290.05 510.413C282.627 508.899 278.136 516.231 274.148 522.742C272.769 524.993 271.45 527.146 270.09 528.802C268.058 531.37 265.547 534.874 262.688 538.862C250.382 556.035 231.64 582.189 216.955 581.242C211.34 579.944 212.109 575.616 213.419 570.889L214.472 567.141C218.379 553.408 222.773 539.787 226.891 526.12C230.003 515.795 214.397 511.738 210.891 521.71C202.552 544.96 187.72 566.37 167.622 580.919C172.994 557.101 185.824 534.857 194.209 511.809C196.807 503.649 184.603 498.556 180.354 505.97C167.431 524.03 151.048 538.483 132.399 550.018C135.543 522.866 152.956 499.02 173.412 481.609C171.826 482.012 170.255 482.486 168.704 483.047C174.88 479.365 180.899 473.734 187.759 471.724ZM632.829 509.694C630.777 492.108 626.205 473.999 614.623 460.141C631.471 469.17 643.48 483.795 653.926 499.372C654.644 506.505 655.825 513.579 657.734 520.448C649.996 522.003 641.854 521.701 633.947 520.54C634.076 517.821 633.631 514.957 633.205 512.216C633.071 511.361 632.94 510.517 632.829 509.694ZM576.1 473.954C588.404 473.181 598.89 476.077 610.331 480.708C611.642 486.137 612.43 491.699 612.961 497.251C608.292 497.357 603.762 499.716 598.854 499.968C594.016 500.218 588.339 499.817 583.329 498.397C582.368 489.976 579.739 481.778 576.1 473.954ZM501.5 484.616C508.738 481.722 519.396 489.699 511.457 495.95C505.677 499.876 497.77 494.611 493.078 491.024C490.492 488.054 499.239 485.155 501.5 484.616ZM583.724 504.219C583.759 506.125 583.696 508.04 583.542 509.964C593.784 511.167 603.873 513.737 613.897 516.237L613.832 513.193C613.81 512.171 613.785 511.146 613.751 510.137C603.843 512.808 591.67 510.042 583.724 504.219ZM361.053 539.476C369.088 531.427 346.511 515.888 344.073 527.316C344.724 534.626 353.428 545.307 361.053 539.476ZM72.0947 528.91C93.2897 515.112 95.8437 548.525 64.5037 538.764C62.4357 535.636 66.903 532.557 70.0889 530.361C70.8745 529.82 71.5822 529.332 72.0947 528.91ZM729.519 560.399C731.583 558.606 734.114 557.367 736.854 558.28L737.12 558.376C745.402 561.273 738.982 572.606 731.88 568.619C729.467 566.81 726.846 565.289 723.968 564.298C722.905 563.204 724.866 562.479 726.77 561.775C727.957 561.336 729.123 560.906 729.519 560.399ZM529.355 604.987C533.852 602.555 533.672 566.735 526.088 576.848C525.623 578.141 525.119 579.452 524.609 580.778C521.734 588.252 518.68 596.191 521.387 603.945C522.626 607.49 527.279 608.264 529.355 604.987ZM167.252 583.152L167.088 583.76C166.246 587.046 168.226 582.711 167.463 583.35C167.395 583.278 167.323 583.216 167.252 583.152ZM245.481 615.437C230.382 606.479 263.434 594.414 264.675 609.026C265.16 618.944 251.771 618.416 245.481 615.437ZM671.073 626.51C683.499 619.577 659.526 598.466 655.501 605.807C654.891 608.068 655.924 610.41 656.878 612.576C657.14 613.17 657.396 613.75 657.611 614.313C659.438 620.552 662.659 630.947 671.073 626.51ZM102.706 623.856C103.31 606.316 131.228 629.153 128.65 638.726C127.086 651.956 111.041 645.776 107.408 636.843C105.153 632.757 103.254 628.511 102.706 623.856ZM397.224 705.108C385.292 698.698 382.324 669.454 401.692 683.512C418.924 689.639 414.19 711.56 397.224 705.108ZM526.747 695.974C514.038 683.572 506.61 690.669 515.071 706.596C522.785 718.949 538.35 704.727 526.747 695.974ZM272.367 718.289C260.476 708.87 278.543 694.018 288.837 700.006C290.167 701.634 289.017 701.901 287.33 702.293C284.985 702.837 281.604 703.622 282.404 708.633C284.406 714.359 278.43 721.98 272.367 718.289Z" transform="translate(31.00027 0.9996)" fill="#000000" fill-rule="evenodd" stroke="none"></path></g><g transform="translate(225 0)"><g><g><path d="M345.142 90.1373C346.232 80.0123 334.379 53.0009 334.665 58.4799C315.663 29.1809 278.58 17.6589 246.585 7.98693C178.664 -14.4351 125.626 12.6439 77.9044 60.6369C49.7304 86.9539 22.9224 116.351 8.77943 152.782C-19.0436 222.28 22.6614 301.526 86.0844 334.726C91.2024 337.496 96.7794 340.126 101.653 343.472C127.871 358.619 158.658 363.859 187.873 370.452C242.529 382.945 311.172 376.991 343.382 324.955C365.229 288.025 359.425 243.256 357.715 202.272C355.146 166.363 350.637 125.783 345.142 90.1373Z" transform="translate(48.99997 119.0004)" fill="#FFFFFF" stroke="none"></path><path d="M279.593 0.314017C231.741 -2.49198 179.404 13.552 143.994 46.654C138.935 51.382 134.281 56.661 129.975 62.293C124.341 67.671 118.995 73.345 114.001 79.298C79.4814 120.439 60.4014 172.179 53.1514 224.958C49.4214 252.128 48.4714 279.579 50.1714 306.949C50.7651 316.485 51.847 326.007 52.9292 335.533C54.8544 352.479 56.7808 369.435 55.9614 386.489C55.3714 398.589 53.1914 411.009 47.2214 421.699C41.5964 431.777 32.7458 438.7 23.982 445.853L22.2314 447.288C13.3714 454.589 3.94137 463.069 0.94137 474.628C-2.31863 487.169 3.11137 499.809 13.7814 506.849C24.4314 513.878 38.2714 514.458 49.9014 509.759C56.6644 507.023 62.6164 503.035 68.1324 498.31C73.9294 502.148 81.3714 504.086 88.4824 503.662C94.8374 503.283 102.145 501.619 108.882 498.687C114.561 502.892 122.173 504.356 129.127 504.128C137.722 503.847 147.326 501.439 155.076 496.652C158.604 497.621 162.356 498.047 166.171 497.859C184.451 496.949 196.801 482.819 201.031 465.759C205.621 447.208 202.521 426.798 197.561 408.628C192.551 390.259 184.401 372.679 173.751 356.899C171.871 354.119 169.931 351.399 167.901 348.729C165.701 344.089 163.29 339.538 160.571 335.248C158.58 332.119 156.381 328.829 153.85 325.849C154.621 324.919 155.341 323.878 156.1 322.788C157.641 320.579 156.061 317.288 153.611 316.659C151.391 316.099 149.491 315.038 147.181 314.769C144.931 314.498 142.58 314.619 140.33 314.458C136.401 314.189 132.611 313.069 129.161 311.169C128.901 311.029 128.641 310.878 128.391 310.718C128.387 310.723 128.385 310.725 128.382 310.725C128.379 310.725 128.377 310.72 128.371 310.708C128.1 310.559 127.821 310.388 127.561 310.229C120.211 305.569 115.79 298.138 114.151 289.538C112.361 280.128 113.951 269.649 117.911 260.958C120.661 254.929 126.191 247.038 132.821 245.019C134.475 245.595 136.296 246.599 138.179 247.636C143.265 250.44 148.799 253.49 152.681 249.009C154.33 247.109 154.661 244.138 152.681 242.269C151.711 241.359 150.471 240.538 149.111 239.809C149.821 238.798 150.521 237.788 151.211 236.779C152.271 235.449 153.271 234.079 154.161 232.659C154.58 231.989 155.001 231.319 155.441 230.649L155.491 230.559L158.694 225.867C166.152 214.908 173.5 203.874 180.771 192.788C186.29 188.859 191.731 184.809 197.1 180.699C223.481 160.538 248.1 137.929 269.571 112.569C276.451 104.439 283.031 96.038 289.241 87.378C311.771 92.439 334.83 95.679 357.031 101.979C371.531 106.099 385.911 111.119 399.04 118.628C405.391 122.259 411.401 126.429 416.661 131.529C419.131 133.929 421.441 136.489 423.481 139.259C425.901 142.548 427.631 143.998 431.361 145.089C431.671 145.809 432.121 146.519 432.701 147.189C433.441 148.038 434.261 148.679 435.141 149.138C434.951 151.309 434.691 153.479 434.641 155.699C434.581 158.339 434.583 160.988 434.585 163.634C434.586 164.947 434.587 166.259 434.58 167.569C434.572 169.252 434.559 170.936 434.547 172.62C434.5 178.853 434.454 185.092 434.611 191.319C434.883 202.155 435.537 213.001 436.253 223.831L437.121 236.819C439.04 265.729 442.441 294.638 443.421 323.589C444.231 347.829 442.031 374.859 425.421 394.019C417.881 402.729 408.531 409.399 398.241 414.498C387.521 419.798 375.33 424.079 363.631 426.429C347.958 429.589 331.455 429.057 315.523 428.185L313.251 428.059C305.35 427.619 297.251 427.489 289.431 426.279C283.451 425.359 277.781 422.798 272.011 421.169C270.491 420.739 268.83 421.949 268.871 423.559C269.156 436.147 284.134 437.868 294.29 438.599L297.99 438.85C313.684 439.885 329.447 440.688 345.181 440.239C346.361 440.208 347.551 440.159 348.731 440.109C343.231 450.138 344.1 462.548 349.691 472.659C351.231 475.439 353.141 477.919 355.35 480.089C362.131 486.788 371.651 490.569 381.211 491.029C381.461 491.138 381.721 491.248 381.981 491.349L382.561 491.583C390.871 494.918 399.472 497.454 408.531 496.378C414.54 495.669 419.961 493.042 424.164 489.238C429.623 490.951 435.522 490.748 441.033 489.144C447.354 492.078 454.15 493.591 460.751 489.748C467.441 485.859 471.401 477.779 471.151 470.149C470.868 461.706 465.091 455.544 458.017 451.767C456.926 448.075 455.208 444.456 453.432 440.889L451.792 437.61L449.691 432.609C448.892 430.721 448.084 428.837 447.278 426.954C445.555 422.163 443.936 417.33 442.693 412.394C441.795 408.827 441.393 405.597 440.2 402.728C452.719 387.163 459.169 368.03 460.54 347.059C461.451 333.079 460.401 319.038 459.061 305.119L458.283 297.033C456.978 283.556 455.635 270.076 454.201 256.609C452.201 237.779 449.931 218.979 447.421 200.218C446.221 191.208 444.721 182.279 443.091 173.339C442.818 171.839 442.54 170.339 442.26 168.839L440.571 159.839C439.951 156.538 438.981 153.259 438.171 149.979C441.901 150.279 445.841 148.048 447.721 144.509C450.176 139.89 448.828 133.639 447.685 128.344C447.507 127.52 447.334 126.719 447.182 125.951L446.824 124.08C444.601 112.713 440.676 101.68 435.701 91.218C425.281 69.298 409.001 50.819 387.941 38.619C383.736 36.181 379.395 33.939 374.955 31.867C368.373 27.058 361.235 22.974 353.91 19.485C330.488 8.32802 305.51 1.83402 279.593 0.314017ZM156.411 275.759C151.631 269.659 142.011 263.878 133.991 266.309C128.511 267.958 123.321 273.479 123.711 279.399C123.771 280.288 125.191 280.619 125.371 279.628C126.421 273.779 132.381 273.179 136.831 275.579C140.931 277.788 143.271 282.569 146.141 286.019C148.671 289.048 153.791 288.579 156.411 286.019C159.491 283.009 158.811 278.819 156.411 275.759ZM603.171 348.009C603.361 348.019 603.541 348.029 603.711 348.099C603.825 348.147 603.921 348.224 604.01 348.308L604.851 349.149C605.151 349.449 605.131 349.909 604.851 350.209C604.605 350.482 604.162 350.49 603.872 350.279L603.791 350.209L602.92 349.337C602.824 349.234 602.743 349.122 602.701 348.979C602.661 348.839 602.661 348.679 602.651 348.529C602.641 348.259 602.901 348.009 603.171 348.009Z" transform="translate(-41.99967 59.99968)" fill="#000000" fill-rule="evenodd" stroke="none"></path></g></g><g transform="translate(159 186)"><g><path d="M175.373 49.5872C175.699 49.4437 175.991 49.2049 176.203 48.8583C178.978 44.3099 179.267 38.8813 178.039 33.5637C176.563 27.172 172.899 20.9588 168.944 16.7559C163.959 11.4582 157.895 7.75374 151.246 4.94731C150.762 4.74287 150.267 4.53098 149.763 4.31514C142.964 1.40541 134.597 -2.01031 127.865 1.47064C125.161 2.86951 123.673 5.20381 123.256 7.7496C122.814 10.4534 123.597 13.4099 125.462 15.7216C128.557 19.5594 133.339 20.3533 138.087 21.0465C139.602 21.2677 141.106 21.486 142.53 21.8229C147.429 22.9821 152.604 24.4361 157.104 26.7244C166.253 31.3762 170.54 38.5898 172.747 48.2853C172.837 48.6781 173.037 48.9988 173.3 49.2406C173.575 49.4928 173.921 49.6579 174.285 49.7192C174.651 49.7808 175.032 49.7375 175.373 49.5872ZM58.3942 19.1934C55.0693 22.4329 51.1339 22.9347 47.1526 23.381C44.9405 23.6313 43.1746 23.8331 41.4369 24.2252C36.6605 25.3034 31.9393 26.9272 27.6319 29.2659C23.1292 31.7106 18.2224 34.659 14.6922 38.4361C13.8528 39.3349 13.0615 40.278 12.2691 41.2232C11.5465 42.0851 10.8505 42.9149 10.1169 43.7149C9.27449 44.6339 8.47449 45.597 7.67875 46.5576C7.1867 47.3681 7.0895 47.5675 6.99041 47.775C6.8413 48.0869 6.66786 48.4359 6.46976 48.8103C6.19845 49.323 5.88066 49.8843 5.54784 50.3932C4.9941 51.3234 4.69697 51.5796 4.44022 51.6942C4.01419 51.8839 3.61015 51.9774 3.21817 51.9268C2.85064 51.8793 2.50438 51.7028 2.16244 51.4138C0.455387 49.9715 -0.0480658 47.6046 0.00353523 45.092C0.0818393 41.2793 1.48813 37.0578 2.78452 34.4628C5.79888 28.4331 9.97938 22.1649 15.0062 17.6646C20.7422 12.5276 27.0177 8.63869 34.2256 5.95894C38.705 4.29304 43.8913 2.76391 48.7713 2.95706C52.284 3.09609 55.6373 4.14026 58.4066 6.74782C60.1072 8.34853 60.9235 10.6254 60.9235 12.9006C60.9235 15.2211 60.0757 17.5554 58.3942 19.1934ZM164.634 78.3299C166.478 78.8824 167.779 78.6212 169.441 77.7551C170.719 77.0896 171.589 76.0387 172.088 74.8117C172.599 73.5559 172.706 72.1077 172.454 70.7659C171.405 65.1948 168.042 60.2513 163.503 57.0672C159.091 53.9728 153.589 52.5435 148.048 53.7341C144.003 54.6036 138.007 58.4424 134.85 63.1243C133.504 65.1203 132.671 67.2595 132.581 69.3723C132.495 71.387 133.008 73.4183 135.676 76.096C135.935 76.177 136.208 76.2208 136.477 76.2208C137.138 76.2208 137.821 75.9439 138.274 75.5441C139.469 74.4935 140.311 73.1636 141.178 71.7329C141.641 70.9679 142.102 70.1976 142.69 69.5195C144.449 67.4927 147.002 65.7736 149.683 65.3262C152.167 64.911 154.406 65.6469 156.181 67.0355C158.256 68.6601 159.713 71.1522 160.252 73.8146C160.472 74.8933 161.036 75.8657 161.818 76.6477C162.607 77.4367 163.615 78.0237 164.634 78.3299ZM46.1749 69.1109C43.7479 67.5587 40.8928 67.0259 37.7287 68.4655C35.256 69.5899 30.9192 73.3385 27.9011 78.2662C25.8363 81.6374 24.3721 85.5922 24.6769 89.7117C24.7477 90.6684 24.3942 91.3738 23.8366 91.8954C23.3962 92.3073 22.7601 92.61 22.013 92.7047C21.3786 92.785 20.6686 92.7125 20.0913 92.5324C18.9931 92.1896 18.4119 91.4772 18.1929 90.8957C16.0797 85.2836 16.9901 79.0208 19.3585 73.3707C22.5547 65.7456 28.3592 59.3585 32.1622 57.2993C38.6698 53.7742 46.347 53.612 52.8639 57.2031C58.4114 60.2596 61.8802 65.1942 65.3301 70.2242C66.0635 71.2934 66.7914 72.3548 67.5436 73.3976C69.0513 75.487 69.2013 77.5593 68.6175 79.3363C67.9707 81.3049 66.3215 82.9663 64.2592 83.8357C62.353 84.6393 60.1407 84.7524 58.1831 83.9268C56.5293 83.2293 55.0117 81.8695 54.0513 79.5625C52.434 75.6771 49.7393 71.3904 46.1749 69.1109ZM127.748 115.98C135.872 104.601 124.366 93.898 116.814 89.3079C114.836 87.8879 116.406 83.1842 120.634 83.9112C159.031 90.5082 139.136 156.649 90.112 120.354C84.2754 115.645 91.3434 105.275 97.6342 109.307C97.9532 109.552 98.2876 109.81 98.6364 110.08C105.704 115.544 118.636 125.542 127.748 115.98ZM117.042 185.1C109.675 187.233 101.768 187.424 94.2589 185.221C87.4481 183.222 80.4549 178.823 75.4423 173.003C70.9894 167.832 68.1055 161.549 68.2187 154.842C68.2316 154.076 68.5055 153.436 68.9268 152.94C69.3804 152.406 70.014 152.039 70.6926 151.88C71.3906 151.716 72.1285 151.774 72.7568 152.059C73.3256 152.318 73.8129 152.757 74.1176 153.398C74.8879 154.41 75.6553 155.407 76.4257 156.376C82.6196 164.024 88.618 169.74 97.9319 171.79C102.985 172.903 108.032 172.409 112.663 170.712C117.62 168.895 122.102 165.7 125.613 161.612C127.2 159.765 129.074 159.011 130.905 158.998C132.982 158.983 135.034 159.948 136.579 161.49C138.099 163.006 139.116 165.065 139.209 167.219C139.29 169.11 138.673 171.085 137.032 172.848C131.626 178.652 124.621 182.904 117.042 185.1Z" transform="translate(54.00004 55.05923)" fill="#000000" fill-rule="evenodd" stroke="none"></path></g></g><g transform="translate(123 338)"></g><g transform="translate(47 241)"><g><path d="M355.09 63.4319C352.262 71.1279 347.958 79.1399 342.695 85.6169C321.401 103.649 300.71 93.6649 290.204 69.2259C286.212 51.9549 296.811 33.3509 308.042 20.6459C324.262 4.38889 350.733 12.9209 358.191 32.2469C358.644 34.7509 358.918 37.2489 359.049 39.7389C358.894 47.8299 357.919 54.7449 355.09 62.4319M150.41 47.9109C178.462 14.5439 230.942 12.7599 229.603 64.1149C223.577 129.119 122.106 113.164 150.41 47.9109ZM363.913 20.0759C362.93 18.4109 361.839 16.7999 360.648 15.2589C360.208 14.9969 359.955 12.6729 358.337 12.5009C336.71 -11.3581 298.717 2.17889 284.989 25.9529C282.482 28.9589 280.437 32.4779 278.929 36.1959C265.403 33.7149 249.634 34.1969 237.054 39.3059C224.58 6.73389 186.815 3.82589 161.928 17.7429C146.449 25.3559 136.412 41.2989 121.358 50.0569C85.9688 52.6039 47.9878 44.6749 13.2378 53.5519C-14.1682 59.2499 8.74178 73.1269 13.3378 63.8659C46.1008 54.1859 84.9158 62.3659 118.933 60.1849C122.47 66.1679 129.253 71.0639 136.013 70.8549C143.314 135.576 237.698 124.844 240.954 67.3109C244.647 61.4719 249.24 55.8839 255.814 52.2459C258.331 51.7249 260.762 51.0479 262.984 49.9999C266.782 49.4639 272.634 51.0739 276.128 54.2359C288.097 126.052 357.052 117.688 369.375 54.7739C369.62 54.5239 370.305 53.5859 370.831 52.0809C375.049 46.5039 385.375 44.4309 383.725 35.0159C382.256 25.5989 370.364 25.7109 363.913 20.0759Z" transform="translate(11.99972 10.99992)" fill="#000000" stroke="none"></path></g></g></g></g></svg>