<?xml version="1.0" standalone="no"?>
<svg style="width: 585px; height: 585px; justify-content: center; align-self: center; transform: scale(1);" viewBox="-350 -150 1500 1500" xmlns="http://www.w3.org/2000/svg"><rect x="-350" y="-150" width="100%" height="100%" fill="#ffdf84" rx="30"></rect><g transform="rotate(0 441.68455505371094 625.5789031982422)"><g transform="translate(0 459)"><path d="M298.817 752.115C238.632 750.82 183.845 754.456 125.89 742.701L125.816 740.749C113.385 740.391 117.5 728.774 119.999 720.649C-113.895 710.243 38.6643 140.153 200.749 101.822C208.689 100.468 217.315 99.7529 226.061 99.6669C237.345 96.2209 248.465 95.6099 260.261 92.4669C261.393 88.3369 261.578 85.9489 266.582 87.1719C284.543 70.0199 316.861 54.2209 327.766 87.6909C342.117 67.7439 350.347 44.4219 356.343 20.8029L357.313 20.9619C359.861 14.6819 364.033 6.73594 369.108 5.42494C377.018 2.80594 391.934 3.40994 400.534 2.34694C419.18 1.05394 440.839 -2.11506 458.712 2.16194C503.375 13.0959 484.019 65.8199 520.231 100.144C536.849 93.2649 562.896 95.1509 578.817 103.342C589.07 111.553 583.929 120.81 582.131 129.49C696.488 119.182 726.915 251.818 750.514 339.255C759.982 368.343 769.379 388.063 785.505 410.521C806.453 436.774 818.216 471.154 796.754 498.85C827.394 559.989 794.131 617.453 758.937 663.607C752.045 670.998 740.866 691.563 730.765 692.969C728.024 695.474 723.646 698.557 720.557 700.796L724.282 705.68C724.727 710.19 724.756 715.037 727.84 719.059C730.807 721.95 733.979 724.914 734.067 729.23C729.339 734.717 723.233 728.588 718.746 725.863C717.026 729.243 717.273 737.272 711.762 736.96C575.11 746.332 435.159 752.476 298.817 752.115" transform="translate(37.00013 -20.00004)" fill="#FFFFFF" stroke="none"></path><path d="M344.686 72.415C352.834 57.409 370.539 14.148 359.673 0C355.527 4.846 354.941 11.741 353.292 17.776C349.154 32.973 343.236 47.748 334.725 61.047C320.809 35.89 287.084 50.979 270.798 66.467C266.707 65.918 262.843 69.155 261.79 73.015C215.964 83.385 190.59 75.149 152.874 111.071C34.4031 203.656 -104.571 682.971 118.451 711.904C110.892 739.253 148.621 735.973 135.801 711.489C217.755 701.093 286.5 648.378 360.429 616.717C375.02 613.163 387.794 619.937 400.285 626.561C402.838 627.914 405.378 629.261 407.92 630.513L408.887 630.984C421.869 635.717 434.037 642.41 446.874 647.565C514.048 673.415 652.906 725.563 719.758 696.729C715.723 709.382 728.54 728.291 740.596 721.83C744.646 720.757 747.612 716.139 746.205 712.105L746.133 711.878C745.966 711.374 745.904 711.34 745.946 711.774L745.984 712.091C746.05 713.093 746.025 713.143 745.911 712.24L745.645 709.933C745.083 707.266 742.267 704.284 740.217 702.273L738.997 701.091C735.872 697.686 738.036 691.506 735.368 687.62C736.841 686.552 738.278 685.427 739.658 684.241C753.095 679.904 760.828 662.906 770.072 652.766L770.403 652.3C796.555 615.516 825.395 574.95 820.903 527.59C819.44 513.015 815.507 498.665 809.863 485.131C834.377 448.505 812.977 416.453 792.408 385.643C788.879 380.357 785.374 375.107 782.129 369.877C735.956 276.376 734.806 108.802 596.318 108.477C605.25 73.094 550.708 72.56 528.274 78.514C512.431 61.7136 507.155 38.9278 502.841 16.9634L502.258 13.974C489.535 30.58 506.612 77.823 522.067 92.607C462.561 105.816 400.394 95.675 344.686 72.415ZM332.549 64.35C319.416 56.291 301.235 59.724 290.599 70.219C285.886 74.422 281.795 80.104 276.428 83.406C275.759 83.817 275.073 84.097 274.384 84.273C278.081 91.263 283.731 97.964 288.507 103.729C314.117 126.091 342.947 144.871 374.633 157.227C375.93 138.217 382.508 119.755 390.026 102.289C383.018 100.177 376.109 97.746 369.324 94.995C368.46 99.566 364.175 103.096 361.465 106.644C355.316 113.845 351.218 122.65 345.363 129.976C338.841 136.811 327.76 128.094 332.447 120.011C340 108.983 349.761 99 361.101 91.491C353.626 88.137 346.498 84.19 339.604 79.774C339.312 80.078 339.011 80.368 338.706 80.648C338.245 77.802 334.328 78.551 332.245 79.017C331.177 78.1123 329.834 78.6788 328.549 79.221C328.049 79.4321 327.557 79.6395 327.094 79.755C326.852 79.315 326.649 78.85 326.505 78.362C318.016 86.747 311.631 100.026 300.678 105.033C296.166 106.278 290.934 101.798 292.654 97.01C295.551 89.658 319.055 74.055 326.819 69.932C325.12 67.46 326.479 66.239 329.233 66.606C329.706 66.014 330.431 65.831 331.186 66.333C331.665 65.689 332.114 65.023 332.549 64.35ZM191.063 98.882C212.944 85.222 239.561 88.064 263.418 81.469L265.222 84.6352C325.395 187.11 534.046 240.603 595.237 111.925C738.642 130.092 707.06 317.197 779.464 406.304C788.769 418.518 799.301 432.812 799.027 448.88C797.402 465.963 788.008 481.192 782.677 497.332C780.212 503.012 786.634 509.048 791.658 504.261C795.278 500.811 799.019 497.478 802.505 493.911C802.655 496.486 802.822 499.059 802.989 501.633C803.734 513.094 804.478 524.552 803.671 536.059C799.335 579.473 769.763 614.913 743.89 648.38L741.501 651.48C727.019 670.149 716.047 680.6 691.652 684.764C624.901 688.653 558.682 667.699 494.626 647.429C482.536 643.603 470.522 639.801 458.597 636.196C443.421 630.892 428.334 625.341 413.143 620.083C402.472 614.352 391.871 607.452 380.084 604.349C441.332 570.599 506.372 545.319 572.856 524.036C604.058 541.53 643.809 551.844 677.976 537.494C682.067 535.69 684.997 528.82 683.221 524.602C674.06 502.83 674.372 479.007 674.679 455.503C674.79 447.017 674.9 438.573 674.564 430.282C671.654 393.087 662.88 356.553 657.886 319.592C654.095 298.4 652.812 276.587 646.067 256.152C646.023 255.68 645.308 255.661 645.317 256.152C645.361 258.497 644.775 260.647 644.186 262.81C643.736 264.461 643.283 266.12 643.107 267.88C640.836 303.094 644.4 338.017 647.964 372.93C651.484 407.417 655.001 441.883 652.895 476.607C639.201 467.601 625.635 459.717 610.02 455.094C604.048 437.529 565.309 433.873 551.266 442.805C539.192 443.634 527.819 444.721 515.924 446.102C492.096 420.444 347.972 416.168 313.645 428.374C310.905 428.05 307.777 427.587 304.395 427.087C280.017 423.481 242.383 417.914 240.819 448.034C223.334 448.785 205.932 453.241 189.874 462.022C195.567 446.746 194.282 430.693 197.252 414.984C197.369 411.448 198.07 406.352 198.857 400.631C200.947 385.441 203.643 365.852 197.601 359.417C186.766 369.944 185.919 397.961 182.035 412.925C181.407 418.875 180.119 424.734 178.833 430.587C176.67 440.423 174.512 450.242 175.493 460.454C174.468 464.786 173.1 469.02 172.348 473.4C158.091 483.723 145.002 496.868 134.349 510.833C123.746 525.956 117.901 544.126 117.747 562.589C119.902 580.171 147.92 558.285 159.679 549.099C161.024 548.048 162.157 547.163 163.014 546.523L163.491 546.171C162.154 550.031 160.407 553.835 158.655 557.65C154.495 566.711 150.306 575.832 151.51 585.911C159.108 613.218 183.857 591.295 195.138 578.644L195.811 577.882C200.018 606.338 234.221 600.765 248.048 582.257C263.353 564.883 288.898 538.801 294.01 516.407C381.798 492.533 469.628 462.874 561.239 459.059C567.338 475.22 572.116 492.258 570.011 509.545C420.681 528.171 303.336 637.519 162.917 683.005C106.967 702.43 57.8101 678.452 37.8401 622.531C-1.69887 499.609 35.9091 365.114 82.8971 249.429L83.5965 247.701C106.753 190.659 137.536 132.576 191.063 98.882ZM555.011 88.652C556.532 90.445 557.048 93.061 556.493 95.411C563.153 105.58 566.812 117.092 570.159 128.528L571.096 127.365C586.27 108.402 594.875 91.2078 561.526 89.335C559.358 89.028 557.184 88.8 555.011 88.652ZM251.878 118.507C268.955 106.208 209.679 95.2156 237.227 115.336C241.585 118.292 246.623 120.415 251.878 118.507ZM508.995 110.95C519.857 109.42 530.637 107.281 541.232 104.43C547.556 113.694 556.662 120.743 565.686 127.349L569.061 129.809C554.212 147.185 536.314 162.592 513.674 168.139C513.606 150.065 508.916 132.62 506.536 114.889C508.055 114.252 509.038 112.658 508.995 110.95ZM407.112 106.771C407.016 108.255 406.595 109.723 405.9 110.963C396.744 126.824 388.706 143.374 379.028 158.899C399.914 166.636 421.862 171.681 444.007 173.675C441.889 160.891 442.301 147.946 442.714 135C442.953 127.493 443.191 119.986 442.937 112.51C430.892 111.354 418.92 109.43 407.112 106.771ZM460.743 113.651C471.372 113.995 482.018 113.725 492.62 112.825C497.631 131.848 500.811 151.279 508.139 169.639C488.412 174.647 467.87 175.485 447.63 173.991C448.612 170.775 449.639 167.573 450.364 164.276C453.126 150.175 454.121 135.75 456.309 121.553C460.961 122.261 462.381 117.158 460.743 113.651ZM167.17 137.839C165.5 138.028 163.85 138.215 162.284 138.208C161.228 138.203 160.792 139.474 161.456 140.209C168.282 149.898 185.699 147.133 178.671 139.089C175.298 136.919 171.175 137.386 167.17 137.839ZM228.406 203.034C237.31 197.014 231.971 182.454 220.929 185.298C211.083 188.292 184.861 205.474 179.613 214.007C182.118 218.804 223.953 206.852 228.406 203.034ZM650.432 185.746C656.498 184.98 659.698 184.576 660.27 185.617C660.91 186.779 658.268 189.745 652.675 196.024C650.661 198.286 648.264 200.977 645.5 204.169C632.753 215.357 619.836 192.437 635.701 187.337C641.762 186.841 646.653 186.223 650.432 185.746ZM323.85 215.757C313.201 212.892 334.974 258.382 340.96 259.076C348.367 264.149 357.623 255.786 355.549 247.861C350.284 234.568 337.274 224.611 325.475 216.822L323.85 215.757ZM474.885 240.363C475.747 239.972 476.508 241.198 475.642 241.659C471.944 243.622 467.928 247.778 465.604 251.285C457.646 261.238 448.232 243.65 460.463 242.328C464.925 242.649 470.791 242.218 474.885 240.363ZM540.289 267.722C532.215 261.354 532.135 293.963 545.693 295.907C550.21 297.283 556.045 292.438 554.025 287.575C550.029 280.484 543.041 275.719 540.289 267.722ZM134.052 288.69C135.989 288.987 140.659 287.126 145.795 285.079C155.931 281.039 167.885 276.275 164.247 285.94C160.68 290.022 156.164 290.12 151.102 290.497L150.964 290.484C150.362 290.445 148.885 290.536 147.028 290.649C140.875 291.027 130.554 291.66 134.052 288.69ZM420.579 307.624C424.585 300.355 433.792 292.643 442.627 293.274C448.046 293.094 450.163 300.887 445.389 303.474L445.23 303.541C442.233 304.737 419.503 310.57 420.579 307.624ZM270.575 318.136C270.143 312.028 276.956 309.844 281.549 311.839C289.745 315.4 296.097 328.499 293.503 336.971C291.415 345.375 278.695 347.235 274.653 339.435C272.329 332.233 272.016 325.357 270.575 318.136ZM702.517 326.482C699.225 327.675 695.959 328.857 692.747 329.537C687.45 334.525 722.29 335.803 723.561 330.062C725.81 327.573 724.715 324.145 721.701 323.012C715.331 321.842 708.874 324.18 702.517 326.482ZM168.188 355.298C171.489 347.147 159.431 347.364 154.663 349.779C153.786 350.523 151.291 350.729 148.755 350.938C144.672 351.275 140.481 351.621 142.753 354.236C149.958 359.699 161.756 363.827 168.188 355.298ZM591.543 364.445L591.284 364.47C582.891 366.292 581.408 378.868 588.798 383.077C598.523 387.857 605.294 377.261 610.572 369.002C611.537 367.492 612.452 366.06 613.326 364.815L613.67 364.331C613.708 360.73 601.923 362.73 595.211 363.869C593.636 364.136 592.341 364.356 591.543 364.445ZM466.071 363.814C468.693 358.981 473.682 366.831 476.704 371.587C477.507 372.851 478.172 373.896 478.616 374.427C481.626 381.167 472.942 386.423 468.659 380.247C466 375.43 464.817 369.222 466.071 363.814ZM352.757 384.707C351.566 382.435 353.898 383.155 356.201 383.867C357.564 384.288 358.916 384.705 359.523 384.499C362.556 384.685 365.295 385.308 367.011 388.036C369.76 392.411 364.419 397.101 360.212 394.835C356.152 392.592 357.128 386.741 352.757 384.707ZM56.2436 440.909L56.3329 440.672C59.2739 432.413 77.0229 420.163 85.8399 423.371C86.2519 423.352 86.6599 423.754 86.6359 424.168L86.7799 425.192C87.2762 428.823 87.5323 432.377 85.1359 435.616C80.8449 442.531 76.7479 451.148 68.4949 453.845C60.3621 456.423 53.3955 448.71 56.2436 440.909ZM498.149 448.565C443.885 429.109 384.743 429.679 327.819 431.491L329.316 431.942C353.857 439.387 382.591 450.955 395.382 473.845C428.913 462.909 463.223 453.854 498.149 448.565ZM750.397 464.251C731.402 475.399 717.653 423.201 741.593 434.413L743.3 436.242C750.235 443.727 760.957 456.38 750.397 464.251ZM282.042 437.322L284.753 437.465C281.543 441.674 278.942 446.472 277.357 451.245C266.765 448.992 256.085 447.841 245.585 447.913C251.603 435.622 269.227 436.606 281.659 437.3L282.042 437.322ZM285.706 453.177C291.85 448.304 298.914 444.733 304.981 439.809C317.516 441.837 330.045 445.068 341.734 449.909C331.988 452.855 322.783 457.033 315.129 463.596C305.735 459.13 295.807 455.735 285.706 453.177ZM563.288 443.641C579.192 442.53 595.447 449.141 603.796 463.926C593.254 462.63 582.739 463.512 573.971 469.629C571.542 464.953 568.792 460.426 565.863 456.085C568.172 453.694 568.216 448.911 565.604 446.735C564.141 445.516 562.513 444.658 560.782 444.051L563.288 443.641ZM324.821 468.619C334.272 463.426 354.901 467.66 358.036 458.018C367.097 463.414 375.397 470.06 382.62 478.13C370.431 482.331 358.31 486.773 346.287 491.467C344.598 481.91 334.738 474.393 325.657 469.101L324.821 468.619ZM187.759 471.724C234.327 448.386 296.643 458.148 331.19 497.487C317.482 501.33 302.486 502.283 290.05 510.413C282.627 508.899 278.136 516.231 274.148 522.742C272.769 524.993 271.45 527.146 270.09 528.802C268.058 531.37 265.547 534.874 262.688 538.862C250.382 556.035 231.64 582.189 216.955 581.242C211.34 579.944 212.109 575.616 213.419 570.889L214.472 567.141C218.379 553.408 222.773 539.787 226.891 526.12C230.003 515.795 214.397 511.738 210.891 521.71C202.552 544.96 187.72 566.37 167.622 580.919C172.994 557.101 185.824 534.857 194.209 511.809C196.807 503.649 184.603 498.556 180.354 505.97C167.431 524.03 151.048 538.483 132.399 550.018C135.543 522.866 152.956 499.02 173.412 481.609C171.826 482.012 170.255 482.486 168.704 483.047C174.88 479.365 180.899 473.734 187.759 471.724ZM632.829 509.694C630.777 492.108 626.205 473.999 614.623 460.141C631.471 469.17 643.48 483.795 653.926 499.372C654.644 506.505 655.825 513.579 657.734 520.448C649.996 522.003 641.854 521.701 633.947 520.54C634.076 517.821 633.631 514.957 633.205 512.216C633.071 511.361 632.94 510.517 632.829 509.694ZM576.1 473.954C588.404 473.181 598.89 476.077 610.331 480.708C611.642 486.137 612.43 491.699 612.961 497.251C608.292 497.357 603.762 499.716 598.854 499.968C594.016 500.218 588.339 499.817 583.329 498.397C582.368 489.976 579.739 481.778 576.1 473.954ZM501.5 484.616C508.738 481.722 519.396 489.699 511.457 495.95C505.677 499.876 497.77 494.611 493.078 491.024C490.492 488.054 499.239 485.155 501.5 484.616ZM583.724 504.219C583.759 506.125 583.696 508.04 583.542 509.964C593.784 511.167 603.873 513.737 613.897 516.237L613.832 513.193C613.81 512.171 613.785 511.146 613.751 510.137C603.843 512.808 591.67 510.042 583.724 504.219ZM361.053 539.476C369.088 531.427 346.511 515.888 344.073 527.316C344.724 534.626 353.428 545.307 361.053 539.476ZM72.0947 528.91C93.2897 515.112 95.8437 548.525 64.5037 538.764C62.4357 535.636 66.903 532.557 70.0889 530.361C70.8745 529.82 71.5822 529.332 72.0947 528.91ZM729.519 560.399C731.583 558.606 734.114 557.367 736.854 558.28L737.12 558.376C745.402 561.273 738.982 572.606 731.88 568.619C729.467 566.81 726.846 565.289 723.968 564.298C722.905 563.204 724.866 562.479 726.77 561.775C727.957 561.336 729.123 560.906 729.519 560.399ZM529.355 604.987C533.852 602.555 533.672 566.735 526.088 576.848C525.623 578.141 525.119 579.452 524.609 580.778C521.734 588.252 518.68 596.191 521.387 603.945C522.626 607.49 527.279 608.264 529.355 604.987ZM167.252 583.152L167.088 583.76C166.246 587.046 168.226 582.711 167.463 583.35C167.395 583.278 167.323 583.216 167.252 583.152ZM245.481 615.437C230.382 606.479 263.434 594.414 264.675 609.026C265.16 618.944 251.771 618.416 245.481 615.437ZM671.073 626.51C683.499 619.577 659.526 598.466 655.501 605.807C654.891 608.068 655.924 610.41 656.878 612.576C657.14 613.17 657.396 613.75 657.611 614.313C659.438 620.552 662.659 630.947 671.073 626.51ZM102.706 623.856C103.31 606.316 131.228 629.153 128.65 638.726C127.086 651.956 111.041 645.776 107.408 636.843C105.153 632.757 103.254 628.511 102.706 623.856ZM397.224 705.108C385.292 698.698 382.324 669.454 401.692 683.512C418.924 689.639 414.19 711.56 397.224 705.108ZM526.747 695.974C514.038 683.572 506.61 690.669 515.071 706.596C522.785 718.949 538.35 704.727 526.747 695.974ZM272.367 718.289C260.476 708.87 278.543 694.018 288.837 700.006C290.167 701.634 289.017 701.901 287.33 702.293C284.985 702.837 281.604 703.622 282.404 708.633C284.406 714.359 278.43 721.98 272.367 718.289Z" transform="translate(31.00027 0.9996)" fill="#000000" fill-rule="evenodd" stroke="none"></path></g><g transform="translate(225 0)"><g><g><path d="M345.142 90.1373C346.232 80.0123 334.379 53.0009 334.665 58.4799C315.663 29.1809 278.58 17.6589 246.585 7.98693C178.664 -14.4351 125.626 12.6439 77.9044 60.6369C49.7304 86.9539 22.9224 116.351 8.77943 152.782C-19.0436 222.28 22.6614 301.526 86.0844 334.726C91.2024 337.496 96.7794 340.126 101.653 343.472C127.871 358.619 158.658 363.859 187.873 370.452C242.529 382.945 311.172 376.991 343.382 324.955C365.229 288.025 359.425 243.256 357.715 202.272C355.146 166.363 350.637 125.783 345.142 90.1373Z" transform="translate(48.99997 119.0004)" fill="#FFFFFF" stroke="none"></path><path d="M279.593 0.314017C231.741 -2.49198 179.404 13.552 143.994 46.654C138.935 51.382 134.281 56.661 129.975 62.293C124.341 67.671 118.995 73.345 114.001 79.298C79.4814 120.439 60.4014 172.179 53.1514 224.958C49.4214 252.128 48.4714 279.579 50.1714 306.949C50.7651 316.485 51.847 326.007 52.9292 335.533C54.8544 352.479 56.7808 369.435 55.9614 386.489C55.3714 398.589 53.1914 411.009 47.2214 421.699C41.5964 431.777 32.7458 438.7 23.982 445.853L22.2314 447.288C13.3714 454.589 3.94137 463.069 0.94137 474.628C-2.31863 487.169 3.11137 499.809 13.7814 506.849C24.4314 513.878 38.2714 514.458 49.9014 509.759C56.6644 507.023 62.6164 503.035 68.1324 498.31C73.9294 502.148 81.3714 504.086 88.4824 503.662C94.8374 503.283 102.145 501.619 108.882 498.687C114.561 502.892 122.173 504.356 129.127 504.128C137.722 503.847 147.326 501.439 155.076 496.652C158.604 497.621 162.356 498.047 166.171 497.859C184.451 496.949 196.801 482.819 201.031 465.759C205.621 447.208 202.521 426.798 197.561 408.628C192.551 390.259 184.401 372.679 173.751 356.899C171.871 354.119 169.931 351.399 167.901 348.729C165.701 344.089 163.29 339.538 160.571 335.248C158.58 332.119 156.381 328.829 153.85 325.849C154.621 324.919 155.341 323.878 156.1 322.788C157.641 320.579 156.061 317.288 153.611 316.659C151.391 316.099 149.491 315.038 147.181 314.769C144.931 314.498 142.58 314.619 140.33 314.458C136.401 314.189 132.611 313.069 129.161 311.169C128.901 311.029 128.641 310.878 128.391 310.718C128.387 310.723 128.385 310.725 128.382 310.725C128.379 310.725 128.377 310.72 128.371 310.708C128.1 310.559 127.821 310.388 127.561 310.229C120.211 305.569 115.79 298.138 114.151 289.538C112.361 280.128 113.951 269.649 117.911 260.958C120.661 254.929 126.191 247.038 132.821 245.019C134.475 245.595 136.296 246.599 138.179 247.636C143.265 250.44 148.799 253.49 152.681 249.009C154.33 247.109 154.661 244.138 152.681 242.269C151.711 241.359 150.471 240.538 149.111 239.809C149.821 238.798 150.521 237.788 151.211 236.779C152.271 235.449 153.271 234.079 154.161 232.659C154.58 231.989 155.001 231.319 155.441 230.649L155.491 230.559L158.694 225.867C166.152 214.908 173.5 203.874 180.771 192.788C186.29 188.859 191.731 184.809 197.1 180.699C223.481 160.538 248.1 137.929 269.571 112.569C276.451 104.439 283.031 96.038 289.241 87.378C311.771 92.439 334.83 95.679 357.031 101.979C371.531 106.099 385.911 111.119 399.04 118.628C405.391 122.259 411.401 126.429 416.661 131.529C419.131 133.929 421.441 136.489 423.481 139.259C425.901 142.548 427.631 143.998 431.361 145.089C431.671 145.809 432.121 146.519 432.701 147.189C433.441 148.038 434.261 148.679 435.141 149.138C434.951 151.309 434.691 153.479 434.641 155.699C434.581 158.339 434.583 160.988 434.585 163.634C434.586 164.947 434.587 166.259 434.58 167.569C434.572 169.252 434.559 170.936 434.547 172.62C434.5 178.853 434.454 185.092 434.611 191.319C434.883 202.155 435.537 213.001 436.253 223.831L437.121 236.819C439.04 265.729 442.441 294.638 443.421 323.589C444.231 347.829 442.031 374.859 425.421 394.019C417.881 402.729 408.531 409.399 398.241 414.498C387.521 419.798 375.33 424.079 363.631 426.429C347.958 429.589 331.455 429.057 315.523 428.185L313.251 428.059C305.35 427.619 297.251 427.489 289.431 426.279C283.451 425.359 277.781 422.798 272.011 421.169C270.491 420.739 268.83 421.949 268.871 423.559C269.156 436.147 284.134 437.868 294.29 438.599L297.99 438.85C313.684 439.885 329.447 440.688 345.181 440.239C346.361 440.208 347.551 440.159 348.731 440.109C343.231 450.138 344.1 462.548 349.691 472.659C351.231 475.439 353.141 477.919 355.35 480.089C362.131 486.788 371.651 490.569 381.211 491.029C381.461 491.138 381.721 491.248 381.981 491.349L382.561 491.583C390.871 494.918 399.472 497.454 408.531 496.378C414.54 495.669 419.961 493.042 424.164 489.238C429.623 490.951 435.522 490.748 441.033 489.144C447.354 492.078 454.15 493.591 460.751 489.748C467.441 485.859 471.401 477.779 471.151 470.149C470.868 461.706 465.091 455.544 458.017 451.767C456.926 448.075 455.208 444.456 453.432 440.889L451.792 437.61L449.691 432.609C448.892 430.721 448.084 428.837 447.278 426.954C445.555 422.163 443.936 417.33 442.693 412.394C441.795 408.827 441.393 405.597 440.2 402.728C452.719 387.163 459.169 368.03 460.54 347.059C461.451 333.079 460.401 319.038 459.061 305.119L458.283 297.033C456.978 283.556 455.635 270.076 454.201 256.609C452.201 237.779 449.931 218.979 447.421 200.218C446.221 191.208 444.721 182.279 443.091 173.339C442.818 171.839 442.54 170.339 442.26 168.839L440.571 159.839C439.951 156.538 438.981 153.259 438.171 149.979C441.901 150.279 445.841 148.048 447.721 144.509C450.176 139.89 448.828 133.639 447.685 128.344C447.507 127.52 447.334 126.719 447.182 125.951L446.824 124.08C444.601 112.713 440.676 101.68 435.701 91.218C425.281 69.298 409.001 50.819 387.941 38.619C383.736 36.181 379.395 33.939 374.955 31.867C368.373 27.058 361.235 22.974 353.91 19.485C330.488 8.32802 305.51 1.83402 279.593 0.314017ZM156.411 275.759C151.631 269.659 142.011 263.878 133.991 266.309C128.511 267.958 123.321 273.479 123.711 279.399C123.771 280.288 125.191 280.619 125.371 279.628C126.421 273.779 132.381 273.179 136.831 275.579C140.931 277.788 143.271 282.569 146.141 286.019C148.671 289.048 153.791 288.579 156.411 286.019C159.491 283.009 158.811 278.819 156.411 275.759ZM603.171 348.009C603.361 348.019 603.541 348.029 603.711 348.099C603.825 348.147 603.921 348.224 604.01 348.308L604.851 349.149C605.151 349.449 605.131 349.909 604.851 350.209C604.605 350.482 604.162 350.49 603.872 350.279L603.791 350.209L602.92 349.337C602.824 349.234 602.743 349.122 602.701 348.979C602.661 348.839 602.661 348.679 602.651 348.529C602.641 348.259 602.901 348.009 603.171 348.009Z" transform="translate(-41.99967 59.99968)" fill="#000000" fill-rule="evenodd" stroke="none"></path></g></g><g transform="translate(159 186)"><g><path d="M64.6851 0.328928L65.3343 0.227903C70.2426 -0.481436 73.5798 0.335303 76.7711 4.52993C78.2921 6.52893 77.8231 9.54793 76.7711 11.5909C74.2481 16.4921 68.445 17.0017 63.0464 17.4758C61.1741 17.6402 59.3504 17.8003 57.7291 18.1379C51.5821 19.4169 45.4501 21.1579 39.6981 23.6919C33.8291 26.2779 28.3201 29.3369 22.9481 32.8299C18.0891 35.9909 13.6821 40.7419 8.13109 42.5809C7.88109 42.6639 7.58009 42.4399 7.59576 42.1749C7.99109 35.8619 13.2641 30.0669 17.3481 25.5709C22.0721 20.3719 27.8171 15.7559 33.8001 12.0859C39.9741 8.29993 46.6481 5.18293 53.5581 3.00893C57.1971 1.86393 60.9201 0.953928 64.6851 0.328928ZM170.069 4.01173C161.004 1.59673 145.641 -0.136272 139.461 8.90073C139.244 9.21773 139.459 9.71373 139.825 9.79573C149.132 11.8917 158.055 13.8077 166.861 17.7407C174.372 21.0969 180.475 25.6524 186.638 30.686L188.009 31.8121L190.151 33.5887C198.179 40.2677 208.86 29.9557 201.721 22.0187C193.751 13.1587 181.435 7.03773 170.069 4.01173ZM94.9638 47.2562C83.9368 39.2272 70.1108 35.2152 56.5218 35.3312C53.6798 35.3562 50.9168 35.5612 48.2258 35.9382C30.3678 34.0672 12.4588 49.6552 5.38279 65.6392C-3.78121 86.3422 -3.01521 118.73 21.7288 127.705C26.927 129.59 32.4683 130.427 37.9527 131.134L41.9353 131.637C49.3585 132.546 56.8901 133.208 64.3668 133.141C78.7508 133.014 90.1908 127.501 98.9448 116.067C106.744 105.882 113.776 92.9482 113.786 79.7932C113.796 66.2822 105.514 54.9392 94.9638 47.2562ZM212.162 100.318C208.623 111.012 200.906 119.247 190.156 122.867C179.502 126.456 167.653 125.148 156.762 123.208C154.38 122.783 151.965 122.315 149.555 121.768C151.527 122.99 153.27 124.71 154.937 126.528C157.403 129.217 159.639 132.05 160.317 135.416C160.99 138.755 159.93 141.295 157.996 143.213C155.021 146.162 150.222 147.751 146.158 148.629C137.056 150.596 127.939 150.29 118.882 148.273C116.57 147.759 115.001 146.519 114.121 144.901C113.052 142.937 112.964 140.494 113.578 138.268C114.191 136.044 115.516 133.994 117.439 132.859C119.022 131.925 121.002 131.669 123.249 132.416C127.759 133.917 132.237 134.911 137.001 135.026C139.017 135.073 141.047 135.013 143.061 134.828C144.199 134.724 145.335 134.579 146.465 134.398C145.799 133.512 145.153 132.609 144.522 131.698C143.775 130.621 143.049 129.529 142.355 128.419C140.349 125.206 138.678 121.904 137.21 118.418C136.739 117.301 136.303 116.179 135.884 115.054C135.823 114.892 135.763 114.729 135.703 114.567C135.574 114.458 135.445 114.349 135.318 114.239C132.447 111.755 130.04 108.695 128.337 104.905C123.727 94.6395 124.478 81.8966 127.275 71.2371C129.517 62.6929 134.465 54.7901 141.002 49.4212C142.143 47.5432 142.897 46.404 143.82 45.4446C147.577 41.5358 152.82 38.8996 157.936 37.296C169.362 33.7129 181.807 36.2836 191.493 43.1058C200.436 49.4048 207.437 58.8518 211.221 69.3589C214.804 79.3093 215.503 90.2234 212.162 100.318ZM79.4728 50.5622C62.4558 42.9242 41.7798 45.2112 25.2728 53.3622C18.7338 60.4962 13.9548 69.4872 12.0208 77.7412C9.95579 86.5522 10.2578 96.0432 13.3628 104.583C17.1538 115.008 26.4888 117.59 36.5588 119.192L40.4684 119.806L42.1086 120.055C52.0033 121.531 62.8209 122.679 72.3298 120.831C82.9272 118.77 89.6574 110.209 94.9545 101.432L95.2018 101.02C100.703 91.8232 105.308 80.6382 100.694 70.1002C96.7708 61.1432 88.2018 54.4802 79.4728 50.5622ZM161.106 51.5656C167.412 49.3996 174.073 49.9876 179.913 53.2236C192.592 60.2486 199.794 75.7386 198.323 89.9676C197.701 95.9906 195.301 102.091 190.213 105.685C184.371 109.811 176.733 109.976 169.763 109.492L168.408 109.389L163.311 108.964C156.698 108.384 149.291 107.384 144.398 103.218C139.035 98.6491 137.846 90.3099 137.72 83.4933L137.71 82.7138L137.708 81.9496C137.724 76.1826 138.535 70.3246 140.5 64.9076C142.186 65.1176 144.037 64.4856 145.095 62.9056L145.366 62.5171C147.463 59.6191 150.074 58.5323 152.869 56.3866L153.776 55.7006C156.049 54.0076 158.393 52.4974 161.106 51.5656ZM52.795 54.5381C62.166 49.7541 73.423 50.9531 81.361 56.9491C80.656 57.0871 79.962 57.2631 79.27 57.6101C77.469 58.5131 76.351 60.3211 75.925 62.2451C75.445 64.4201 76.572 66.4791 78.719 67.1651C80.587 67.7611 82.802 68.0341 84.537 66.8991C85.446 66.3051 86.081 65.5221 86.498 64.5361L86.557 64.3911L86.6303 64.2847L86.6581 64.2349C86.6645 64.216 86.6317 64.252 86.58 64.3331C86.633 64.2101 86.682 64.0871 86.731 63.9621C86.804 63.8131 86.874 63.6631 86.931 63.5081C87.032 63.4211 87.124 63.3241 87.217 63.2271C88.659 65.4461 89.791 67.9521 90.51 70.7401C95.124 88.6351 76.204 107.206 59.301 109.064C52.913 109.766 47.088 108.245 42.254 105.247C42.298 105.188 42.347 105.135 42.387 105.073C44.329 105.422 46.647 104.553 47.352 102.387C49.151 96.8621 47.306 90.3991 41.286 88.5941C37.412 87.4321 33.448 88.7161 30.679 91.3641C28.585 86.2391 27.836 80.4691 28.827 74.6901C30.225 66.5371 35.143 59.1901 42.797 55.7981C46.524 54.1451 49.736 53.7981 52.795 54.5381ZM151.767 65.1295L151.482 65.5789C147.663 71.7409 146.72 79.1059 148.675 85.5869C148.683 85.7066 148.695 85.8259 148.708 85.9451L148.797 86.6589C151.32 86.0129 154.008 86.5199 155.814 88.7309C156.539 88.7329 157.255 88.8919 157.833 89.2289L158.028 89.3502C159.797 90.517 160.098 92.6435 159.353 94.5037L159.274 94.688L159.288 94.662C159.347 94.5497 159.125 95.1893 159.1 95.2589L158.955 95.638C158.856 95.8895 158.751 96.1386 158.643 96.3859C158.211 97.3689 157.626 98.1629 156.915 98.9679C156.645 99.2739 156.332 99.5049 155.997 99.6829C160.161 102.975 165.591 104.581 171.021 104.026C176.886 103.427 181.769 100.467 184.937 96.1059C185.268 95.8159 185.603 95.5319 185.918 95.2179C193.721 87.4219 194.64 73.3679 187.989 64.6219C187.584 64.0909 187.159 63.6229 186.721 63.2029C186.535 63.8789 186.198 64.5359 185.715 64.9839C184.827 65.8099 183.745 66.3509 182.516 66.3729C181.678 66.3899 180.823 66.1669 180.096 65.7429C179.036 65.1239 178.253 64.1009 177.704 63.0219C177.198 62.0259 177.054 61.0239 177.301 59.9399C177.309 59.9069 177.319 59.8751 177.331 59.8439L177.405 59.6569C174.695 57.9899 171.395 57.2739 168.243 57.7019C167.531 57.2609 166.741 56.9209 165.935 56.7099C160.198 55.2069 154.663 60.6733 151.767 65.1295ZM59.1248 152.988C58.8718 152.829 58.5398 152.897 58.3298 153.091C56.4748 154.804 56.4508 157.175 55.7878 159.532C54.8718 162.79 53.8158 166.052 52.6748 169.237C50.4508 175.45 47.8918 181.968 43.8078 187.222L43.6421 187.44C40.1686 192.126 40.6221 198.728 46.5918 201.243C51.6778 203.387 56.7898 200.384 58.2048 195.53L58.2658 195.638C60.8528 189.485 62.9938 183.084 63.7368 176.457C64.4278 176.821 65.1148 177.18 65.7738 177.534L66.8531 178.109C70.8192 180.202 74.8814 182.115 79.0788 183.694C89.0058 187.428 99.2578 190.003 109.725 191.68C119.407 193.23 129.169 194.127 138.969 193.31C148.557 192.51 159.889 190.647 168.195 185.48C177.871 179.458 169.445 165.735 159.391 170.418C155.375 172.288 151.936 174.423 147.618 175.711C143.965 176.8 140.207 177.616 136.427 178.105C127.624 179.242 118.54 178.995 109.712 178.319C100.616 177.622 91.5228 176.23 82.5968 174.349L79.9264 173.798C76.3634 173.076 72.7932 172.39 69.2428 171.605C67.5708 171.235 65.8028 170.705 64.0128 170.239C63.9638 164.925 63.4518 155.724 59.1248 152.988Z" transform="translate(36.00021 35.99987)" fill="#000000" fill-rule="evenodd" stroke="none"></path></g></g><g transform="translate(123 338)"></g><g transform="translate(47 241)"><g><path d="M355.09 63.4319C352.262 71.1279 347.958 79.1399 342.695 85.6169C321.401 103.649 300.71 93.6649 290.204 69.2259C286.212 51.9549 296.811 33.3509 308.042 20.6459C324.262 4.38889 350.733 12.9209 358.191 32.2469C358.644 34.7509 358.918 37.2489 359.049 39.7389C358.894 47.8299 357.919 54.7449 355.09 62.4319M150.41 47.9109C178.462 14.5439 230.942 12.7599 229.603 64.1149C223.577 129.119 122.106 113.164 150.41 47.9109ZM363.913 20.0759C362.93 18.4109 361.839 16.7999 360.648 15.2589C360.208 14.9969 359.955 12.6729 358.337 12.5009C336.71 -11.3581 298.717 2.17889 284.989 25.9529C282.482 28.9589 280.437 32.4779 278.929 36.1959C265.403 33.7149 249.634 34.1969 237.054 39.3059C224.58 6.73389 186.815 3.82589 161.928 17.7429C146.449 25.3559 136.412 41.2989 121.358 50.0569C85.9688 52.6039 47.9878 44.6749 13.2378 53.5519C-14.1682 59.2499 8.74178 73.1269 13.3378 63.8659C46.1008 54.1859 84.9158 62.3659 118.933 60.1849C122.47 66.1679 129.253 71.0639 136.013 70.8549C143.314 135.576 237.698 124.844 240.954 67.3109C244.647 61.4719 249.24 55.8839 255.814 52.2459C258.331 51.7249 260.762 51.0479 262.984 49.9999C266.782 49.4639 272.634 51.0739 276.128 54.2359C288.097 126.052 357.052 117.688 369.375 54.7739C369.62 54.5239 370.305 53.5859 370.831 52.0809C375.049 46.5039 385.375 44.4309 383.725 35.0159C382.256 25.5989 370.364 25.7109 363.913 20.0759Z" transform="translate(11.99972 10.99992)" fill="#000000" stroke="none"></path></g></g></g></g></svg>